<svg width="190" height="191" viewBox="0 0 190 191" fill="none" xmlns="http://www.w3.org/2000/svg">
<ellipse cx="7.68073" cy="6.75752" rx="7.68073" ry="6.75752" fill="#2A005C" fill-opacity="0.4"/>
<ellipse cx="36.2091" cy="6.75752" rx="7.68073" ry="6.75752" fill="#2A005C" fill-opacity="0.4"/>
<ellipse cx="64.7374" cy="6.75752" rx="7.68073" ry="6.75752" fill="#2A005C" fill-opacity="0.4"/>
<ellipse cx="93.2662" cy="6.75752" rx="7.68073" ry="6.75752" fill="#2A005C" fill-opacity="0.4"/>
<ellipse cx="7.68073" cy="31.8564" rx="7.68073" ry="6.75752" fill="#2A005C" fill-opacity="0.4"/>
<ellipse cx="36.2091" cy="31.8566" rx="7.68073" ry="6.75752" fill="#2A005C" fill-opacity="0.4"/>
<ellipse cx="64.7374" cy="31.8566" rx="7.68073" ry="6.75752" fill="#2A005C" fill-opacity="0.4"/>
<ellipse cx="93.2662" cy="31.8566" rx="7.68073" ry="6.75752" fill="#2A005C" fill-opacity="0.4"/>
<ellipse cx="7.68073" cy="56.9563" rx="7.68073" ry="6.75752" fill="#2A005C" fill-opacity="0.4"/>
<ellipse cx="36.2091" cy="56.9563" rx="7.68073" ry="6.75752" fill="#2A005C" fill-opacity="0.4"/>
<ellipse cx="64.7374" cy="56.9563" rx="7.68073" ry="6.75752" fill="#2A005C" fill-opacity="0.4"/>
<ellipse cx="93.2662" cy="56.9563" rx="7.68073" ry="6.75752" fill="#2A005C" fill-opacity="0.4"/>
<ellipse cx="7.68073" cy="82.0556" rx="7.68073" ry="6.75752" fill="#2A005C" fill-opacity="0.4"/>
<ellipse cx="36.2091" cy="82.0559" rx="7.68073" ry="6.75752" fill="#2A005C" fill-opacity="0.4"/>
<ellipse cx="64.7374" cy="82.0559" rx="7.68073" ry="6.75752" fill="#2A005C" fill-opacity="0.4"/>
<ellipse cx="93.2662" cy="82.0559" rx="7.68073" ry="6.75752" fill="#2A005C" fill-opacity="0.4"/>
<ellipse cx="120.875" cy="6.75752" rx="7.68073" ry="6.75752" fill="#2A005C" fill-opacity="0.4"/>
<ellipse cx="149.403" cy="6.75752" rx="7.68073" ry="6.75752" fill="#2A005C" fill-opacity="0.4"/>
<ellipse cx="177.931" cy="6.75752" rx="7.68073" ry="6.75752" fill="#2A005C" fill-opacity="0.4"/>
<ellipse cx="120.875" cy="31.884" rx="7.68073" ry="6.75752" fill="#2A005C" fill-opacity="0.4"/>
<ellipse cx="149.403" cy="31.884" rx="7.68073" ry="6.75752" fill="#2A005C" fill-opacity="0.4"/>
<ellipse cx="177.931" cy="31.884" rx="7.68073" ry="6.75752" fill="#2A005C" fill-opacity="0.4"/>
<ellipse cx="120.875" cy="57.0109" rx="7.68073" ry="6.75752" fill="#2A005C" fill-opacity="0.4"/>
<ellipse cx="149.403" cy="57.0109" rx="7.68073" ry="6.75752" fill="#2A005C" fill-opacity="0.4"/>
<ellipse cx="177.931" cy="57.0109" rx="7.68073" ry="6.75752" fill="#2A005C" fill-opacity="0.4"/>
<ellipse cx="120.875" cy="82.1376" rx="7.68073" ry="6.75752" fill="#2A005C" fill-opacity="0.4"/>
<ellipse cx="149.403" cy="82.1374" rx="7.68073" ry="6.75752" fill="#2A005C" fill-opacity="0.4"/>
<ellipse cx="177.931" cy="82.1374" rx="7.68073" ry="6.75752" fill="#2A005C" fill-opacity="0.4"/>
<ellipse cx="7.68073" cy="108.124" rx="7.68073" ry="6.75752" fill="#2A005C" fill-opacity="0.4"/>
<ellipse cx="36.2091" cy="108.124" rx="7.68073" ry="6.75752" fill="#2A005C" fill-opacity="0.4"/>
<ellipse cx="64.7374" cy="108.124" rx="7.68073" ry="6.75752" fill="#2A005C" fill-opacity="0.4"/>
<ellipse cx="93.2662" cy="108.124" rx="7.68073" ry="6.75752" fill="#2A005C" fill-opacity="0.4"/>
<ellipse cx="7.68073" cy="133.223" rx="7.68073" ry="6.75752" fill="#2A005C" fill-opacity="0.4"/>
<ellipse cx="36.2091" cy="133.223" rx="7.68073" ry="6.75752" fill="#2A005C" fill-opacity="0.4"/>
<ellipse cx="64.7374" cy="133.223" rx="7.68073" ry="6.75752" fill="#2A005C" fill-opacity="0.4"/>
<ellipse cx="93.2662" cy="133.223" rx="7.68073" ry="6.75752" fill="#2A005C" fill-opacity="0.4"/>
<ellipse cx="7.68073" cy="158.322" rx="7.68073" ry="6.75752" fill="#2A005C" fill-opacity="0.4"/>
<ellipse cx="36.2091" cy="158.322" rx="7.68073" ry="6.75752" fill="#2A005C" fill-opacity="0.4"/>
<ellipse cx="64.7374" cy="158.322" rx="7.68073" ry="6.75752" fill="#2A005C" fill-opacity="0.4"/>
<ellipse cx="93.2662" cy="158.322" rx="7.68073" ry="6.75752" fill="#2A005C" fill-opacity="0.4"/>
<ellipse cx="7.68073" cy="183.422" rx="7.68073" ry="6.75752" fill="#2A005C" fill-opacity="0.4"/>
<ellipse cx="36.2091" cy="183.422" rx="7.68073" ry="6.75752" fill="#2A005C" fill-opacity="0.4"/>
<ellipse cx="64.7374" cy="183.422" rx="7.68073" ry="6.75752" fill="#2A005C" fill-opacity="0.4"/>
<ellipse cx="93.2662" cy="183.422" rx="7.68073" ry="6.75752" fill="#2A005C" fill-opacity="0.4"/>
<ellipse cx="120.875" cy="108.124" rx="7.68073" ry="6.75752" fill="#2A005C" fill-opacity="0.4"/>
<ellipse cx="149.403" cy="108.124" rx="7.68073" ry="6.75752" fill="#2A005C" fill-opacity="0.4"/>
<ellipse cx="177.931" cy="108.124" rx="7.68073" ry="6.75752" fill="#2A005C" fill-opacity="0.4"/>
<ellipse cx="120.875" cy="133.25" rx="7.68073" ry="6.75752" fill="#2A005C" fill-opacity="0.4"/>
<ellipse cx="149.403" cy="133.25" rx="7.68073" ry="6.75752" fill="#2A005C" fill-opacity="0.4"/>
<ellipse cx="177.931" cy="133.25" rx="7.68073" ry="6.75752" fill="#2A005C" fill-opacity="0.4"/>
<ellipse cx="120.875" cy="158.377" rx="7.68073" ry="6.75752" fill="#2A005C" fill-opacity="0.4"/>
<ellipse cx="149.403" cy="158.377" rx="7.68073" ry="6.75752" fill="#2A005C" fill-opacity="0.4"/>
<ellipse cx="177.931" cy="158.377" rx="7.68073" ry="6.75752" fill="#2A005C" fill-opacity="0.4"/>
<ellipse cx="120.875" cy="183.504" rx="7.68073" ry="6.75752" fill="#2A005C" fill-opacity="0.4"/>
<ellipse cx="149.403" cy="183.504" rx="7.68073" ry="6.75752" fill="#2A005C" fill-opacity="0.4"/>
<ellipse cx="177.931" cy="183.504" rx="7.68073" ry="6.75752" fill="#2A005C" fill-opacity="0.4"/>
</svg>
